<?xml version="1.0" standalone="no"?>
<!DOCTYPE svg PUBLIC "-//W3C//DTD SVG 20010904//EN"
 "http://www.w3.org/TR/2001/REC-SVG-20010904/DTD/svg10.dtd">
<svg version="1.0" xmlns="http://www.w3.org/2000/svg"
 width="400.000000pt" height="400.000000pt" viewBox="0 0 400.000000 400.000000"
 preserveAspectRatio="xMidYMid meet">
<metadata>
Created by potrace 1.11, written by Peter Selinger 2001-2013
</metadata>
<g transform="translate(0.000000,400.000000) scale(0.100000,-0.100000)"
fill="#000000" stroke="none">
<path d="M1849 3996 c-2 -2 -35 -6 -74 -10 -38 -4 -113 -16 -165 -27 -52 -11
-106 -22 -120 -25 -74 -14 -233 -75 -365 -139 -234 -113 -438 -266 -605 -452
-86 -95 -100 -113 -100 -122 0 -5 -4 -11 -8 -13 -11 -4 -93 -122 -128 -183
-15 -27 -31 -52 -34 -55 -22 -19 -157 -348 -170 -415 -1 -3 -6 -19 -11 -37 -6
-18 -12 -44 -15 -58 -3 -14 -11 -56 -19 -95 -40 -197 -42 -489 -5 -710 23
-141 96 -382 139 -462 5 -10 20 -40 32 -68 12 -27 32 -63 43 -80 12 -16 20
-32 18 -35 -4 -7 132 -210 141 -210 4 0 7 -5 7 -12 0 -33 252 -287 380 -382
30 -23 56 -44 58 -48 2 -5 7 -8 11 -8 5 0 41 -22 82 -49 90 -58 275 -148 384
-186 44 -15 87 -30 95 -33 8 -3 20 -7 25 -8 6 -1 12 -3 15 -4 7 -2 41 -10 65
-15 11 -2 52 -11 90 -19 39 -8 102 -19 140 -25 74 -10 466 -8 525 4 93 17 181
36 235 51 33 8 67 17 75 19 145 32 508 223 648 340 160 134 265 245 390 410 8
11 90 138 109 170 82 136 190 420 217 570 3 17 8 41 11 55 37 184 42 527 10
673 -2 12 -7 38 -10 57 -2 19 -7 46 -10 60 -3 14 -8 36 -11 50 -3 14 -8 34
-11 45 -4 11 -8 23 -9 28 -1 4 -2 8 -3 10 -2 1 -4 13 -7 27 -2 14 -8 34 -13
45 -4 11 -23 58 -41 105 -63 165 -187 381 -302 524 -53 67 -190 208 -255 263
-12 10 -32 27 -45 38 -109 92 -365 243 -513 302 -99 39 -135 52 -135 48 0 -3
-16 2 -36 10 -20 8 -47 15 -60 15 -13 0 -24 4 -24 8 0 4 -8 8 -17 9 -10 1 -56
8 -103 17 -47 8 -101 18 -120 21 -38 7 -395 16 -401 11z"/>
</g>
</svg>
